<svg id="图层_1" data-name="图层 1" xmlns="http://www.w3.org/2000/svg" viewBox="0 0 236.89 116.91"><defs><style>.cls-1{fill:#fff;}</style></defs><path class="cls-1" d="M68.47,2.12Q77.37,4,85.34,5.87q3.75,2.82.47,5.16c-1.56,0-2.5.47-2.81,1.4q13.59,15.48,34.69,17.35A3,3,0,0,1,120,31.65a3,3,0,0,1-1.87,2.81q-4.23,2.35-7,8.91c-.62,2.19-1.87,2.51-3.74.94Q90,35.42,80.19,16.65A75,75,0,0,1,62.84,35.4H76.91q4.22-7.48,7-8,4.22,1.41,10.31,8.91.93,2.8-1.41,2.81H57.69a41.14,41.14,0,0,1-8,4.69c3.43.94,6.4,1.87,8.9,2.81a1.33,1.33,0,0,0,.94.47h2.35c1.24-2.81,2.65-4.37,4.21-4.69q3.28.95,11.72,6.1c.94,1.56.78,2.66-.46,3.28a1.39,1.39,0,0,1-.94.47c-.94.63-1.25,1.25-.94,1.87V73.37q0,3.28-2.34,3.75A11.91,11.91,0,0,1,67.53,79c-3.75.93-5.32,0-4.69-2.82V72H58.62v1.41c.31,2.81-.93,4.38-3.74,4.69-.63.63-1.1.78-1.41.47a.41.41,0,0,0,.47.47,95.63,95.63,0,0,1,16.87,3.28,3,3,0,0,1,1.88,2.81c0,.94-.63,1.57-1.88,1.87a11.78,11.78,0,0,0-4.22,3.29,12.13,12.13,0,0,1-1.87,3.28l-.94,1.87a18.71,18.71,0,0,1,10.31,7q2.34,6.57-3.75,10.78-8.43,3.29-8.43-6.09a50.71,50.71,0,0,0-.47-8.44,149.36,149.36,0,0,1-21.56,18.75,4.28,4.28,0,0,1-2.82,0c-.63-.63-.47-1.4.47-2.34Q48.32,98.22,51.12,80.87V80.4a5.27,5.27,0,0,0,.94-1.4c-1.25.63-2,.78-2.34.46q-5.62.95-3.75-5.15v-8a15,15,0,0,1-2.35,1.87q-7.5,3.29-8-6.56a13.32,13.32,0,0,1-.47-3.28q-.48-5.15-.94-8V85.56c.31,10.63.47,18,.47,22q0,6.55-3.75,8a8.59,8.59,0,0,0-2.81.47,42.52,42.52,0,0,1-6.1,1.87q-7,1.41-5.62-8.9.46-9.85.47-17.82c.3-4.68.47-11.25.47-19.68v-.94A120.49,120.49,0,0,1,4.72,87.43q-2.35,2.35-2.81,1.41c-.63-.62-.47-1.88.47-3.75q10.77-22.5,12.18-50.16H12.22a34.43,34.43,0,0,0-7,.47,3,3,0,0,1-2.35,0v-.94a6.33,6.33,0,0,1-1.4-3.28c-.63-.93-.47-1.24.47-.93a82.29,82.29,0,0,0,12.65.93h2.82V25.09q-.48-9.84-.94-18.75c-.63-1.56-.79-2.65-.47-3.28.62-.62,1.87-.94,3.75-.94a11.94,11.94,0,0,0,3.75.47q8,.95,12.65,1.41a4.23,4.23,0,0,1,2.35,2.81q.47,1.41-1.41,2.34c-2.19.94-3.12,2.51-2.81,4.69V29.78q5.16-8,8-8,3.27,1.41,10.31,9.37Q62.83,16.66,64.72,4.46C64.72,2.59,66,1.81,68.47,2.12ZM40.34,45.25l9.38-10.32H34.25v8.91c1.87.94,3.59,1.87,5.16,2.81C39.41,46.34,39.71,45.88,40.34,45.25Zm2.35,2.34a1.35,1.35,0,0,0-.94.47c-.31.31-.47.31-.47,0,1.56,1.57,3.12,3.28,4.69,5.15q-.48-3.27-.94-6.56v-.47a5.61,5.61,0,0,0-1.41.94A1.31,1.31,0,0,1,42.69,47.59Zm20.15,3.28H59.56c-.63.32-.94,1.1-.94,2.34v15h4.22ZM88.62,78.06q4.23.94,13.13,2.81a19.52,19.52,0,0,0,3.75.47,4.91,4.91,0,0,1,1.88,3.28A3,3,0,0,1,105,86.5a5.45,5.45,0,0,0-3.75,3.28,76.93,76.93,0,0,0-4.22,6.56,36.83,36.83,0,0,1,16.88,7q4.68,6.09-1.41,12.66-8.43,4.22-11.72-5.16-1.87-8.43-6.09-11.72A126.14,126.14,0,0,1,73.16,117.9a4.28,4.28,0,0,1-2.82,0c-.63-.63-.46-1.4.47-2.34a83,83,0,0,0,15-35.16Q85.81,77.13,88.62,78.06ZM78.78,58.37V56a28.15,28.15,0,0,0-.47-6.1,12.29,12.29,0,0,0-.47-3.75,4.26,4.26,0,0,1,0-2.81,8.1,8.1,0,0,1,3.28-.47c3.76.94,7.19,1.88,10.32,2.81.31.63.47.79.47.47h2.81Q96.58,42,98.94,41.5q5.15,1.39,11.72,7c1.24,1.25,1.09,2.34-.47,3.28s-2.19,2-1.88,3.28v3.28q-.47,11.25.47,13.59a3.72,3.72,0,0,1-2.34,4.22,1.91,1.91,0,0,1-1.41.47c-2.5.94-4.38,1.25-5.62.94q-4.23.94-3.75-2.81V71.5H91.44v.93q.47,4.23-3.75,4.69a16.48,16.48,0,0,1-4.22,1.41h-.94q-5.62.94-4.22-5.16C78.62,72.13,78.78,67.12,78.78,58.37Zm16.88-8.44H92.38a3.83,3.83,0,0,0-.94,2.82v15h4.22Z" transform="translate(-1.06 -2.06)"/><path class="cls-1" d="M186.12,13.37v1.88h13.13q4.22-6.09,6.09-6.57,8,2.82,17.35,10.78a3.23,3.23,0,0,1-1.41,4.22,3,3,0,0,0-1.87,2.82v2.81h1.4q4.22-6.55,7-8,3.28,1.41,9.85,8,.93,3.29-1.41,3.75H219.41a37.57,37.57,0,0,0,.47,10.31c.3,3.75-.94,5.94-3.76,6.56a1.35,1.35,0,0,0-.93.47h-1.41A26.27,26.27,0,0,1,218,54.62,8.28,8.28,0,0,0,220.34,57c.94,1.26,1.25,2.35.94,3.29-.31.63-1.1.93-2.34.93H186.12v8h26.72l2.35-2.34q5.15-6.09,6.56-6.1,2.81,1.41,10.78,8a4.34,4.34,0,0,1,.94,3.75c-.32.94-1.1,1.26-2.35.94H219.88q-6.57-.47-19.22-.47h-53a146.68,146.68,0,0,0-17.81,1.41c-.94.31-1.73-.16-2.35-1.41A3,3,0,0,1,126.12,71l-.93-1.88c-.63-.62-.32-.94.93-.94q3.75.48,11.72.94h30.47v-8h-8.9a147.09,147.09,0,0,0-17.82,1.41,1.7,1.7,0,0,1-2.34-1.41,4.33,4.33,0,0,1-2.34-3.28l-.47-.94c0-.3.31-.46.94-.46q15.47,1.39,26.24,1.4h4.69V46.18H148.62a28.53,28.53,0,0,0-4.21.47h-3.29c-1.25.63-2,.47-2.34-.47a6.17,6.17,0,0,1-2.34-2.81c-.63-.31-.94-.62-.94-.94a5.62,5.62,0,0,1,1.41-.93c2.81.93,7.5,1.25,14.06.93h17.34V33.06H136a34.43,34.43,0,0,0-7,.47,4.39,4.39,0,0,1-2.82,0v-.47c-.31,0-.62-.31-.93-.94a21.52,21.52,0,0,1-1.41-2.34c-.63-.31-.78-.63-.47-.94l1.41-.47a102,102,0,0,0,13.59.94h30V19H152.38a21.29,21.29,0,0,0-3.76.46,5.48,5.48,0,0,1-3.28,0c-1.56.63-2.5.47-2.81-.46a5.2,5.2,0,0,1-1.87-1.88,3.44,3.44,0,0,1-.47-1.41c-.63-.3-.79-.62-.47-.93l1.4-.47q3.75,1.41,13.6.94h13.59c-.31-3.44-.63-6.41-.93-8.91Q166,2.13,171.59,2.12a106.66,106.66,0,0,1,15,2.34q3.28,2.36.94,4.69Q185.66,10.09,186.12,13.37Zm-47.81,82V94a59.27,59.27,0,0,1-.47-9.38V79c-.93-3.12.31-4.38,3.75-3.75q5.16,1.88,15.47,4.68c0,.63.31.79.94.47h41.25c2.18-3.43,4.22-5.46,6.09-6.09a63.81,63.81,0,0,1,18.28,10.78c0,.94-.78,2-2.34,3.28a2.65,2.65,0,0,0-1.87,3.28v10.78c.3,2.82.47,4.84.47,6.1q.93,6.07-3.76,7-2.34.47-5.15.94a29.4,29.4,0,0,0-5.63.46c-3.44.63-4.84-.46-4.22-3.28v-.47H156.59v.47c0,1.56-.93,2.82-2.81,3.75l-11.25,1.41q-6.09.93-4.69-5.16v-6.56C138.15,102.13,138.31,98.21,138.31,95.4Zm62.81-11.25H158q-1.41.94-1.41,3.75v7.5h44.53Zm-44.53,15v10.31h44.53V99.15ZM200.66,19H186.12V29.31h14.54ZM186.12,33.06v9.37h14.54V33.06Zm19.22,18.28q-5.16.46-4.68-5.16H186.12V57.9h14.54l.46-.94a20.76,20.76,0,0,1,4.69-5.62Z" transform="translate(-1.06 -2.06)"/></svg>